<svg version="1.1" id="Layer_1" xmlns="http://www.w3.org/2000/svg" xmlns:xlink="http://www.w3.org/1999/xlink" x="0px" y="0px"
	 width="100%" viewBox="0 0 116 116" enable-background="new 0 0 116 116" xml:space="preserve">
<path fill="#F4B310" opacity="1.000000" stroke="none" 
	d="
M34.027721,38.954529 
	C44.163647,44.275688 54.313259,49.570980 64.430984,54.926517 
	C71.974693,58.919559 79.559471,62.848713 86.937416,67.131134 
	C88.679466,68.142273 90.416023,70.294731 90.833832,72.210350 
	C91.607590,75.757996 91.453636,79.481377 87.622635,81.797546 
	C80.842026,85.896980 74.116852,90.088097 67.368912,94.241570 
	C57.712662,100.185181 48.299194,106.592346 38.278259,111.839409 
	C34.416325,113.861565 29.135223,113.805939 24.584499,113.490051 
	C23.239916,113.396713 21.178656,109.191086 21.149023,106.848412 
	C20.883995,85.895126 21.000061,64.937019 21.431522,43.473820 
	C25.915277,41.629715 29.971500,40.292122 34.027721,38.954529 
z"/>
<path fill="#DFA610" opacity="1.000000" stroke="none" 
	d="
M72.665054,36.735527 
	C69.782616,37.695461 67.184158,38.656567 64.517227,38.917297 
	C61.076500,39.253674 59.399174,36.909500 60.096401,33.879967 
	C61.762558,26.640285 64.316185,19.590847 65.737846,12.313463 
	C66.817284,6.787895 70.059700,6.297576 74.331139,7.186555 
	C79.498085,8.261908 81.350288,11.019214 79.832115,16.170828 
	C77.817307,23.007713 75.249031,29.681494 72.665054,36.735527 
z"/>
<path fill="#E1A70D" opacity="1.000000" stroke="none" 
	d="
M37.329258,2.417904 
	C41.084282,3.140973 43.625340,4.996339 44.001926,8.716651 
	C44.759056,16.196421 45.482746,23.686472 45.863228,31.190382 
	C45.923485,32.378700 44.181190,34.645664 43.165939,34.709003 
	C40.528439,34.873539 36.434811,35.007908 35.440777,33.497173 
	C33.162556,30.034723 31.838072,25.674721 31.152014,21.510178 
	C30.458355,17.299486 31.341375,12.851005 30.911779,8.569086 
	C30.419056,3.657946 32.688393,2.254467 37.329258,2.417904 
z"/>
<path fill="#DDA713" opacity="1.000000" stroke="none" 
	d="
M103.763260,46.727928 
	C98.976654,49.685814 94.504372,52.481083 89.899086,55.036682 
	C86.947693,56.674492 84.050919,56.672924 81.833527,53.559578 
	C79.286255,49.983051 79.615494,45.862171 82.440491,43.380726 
	C87.013702,39.363678 92.434769,36.277554 97.640686,33.027145 
	C101.130226,30.848383 104.746231,31.850349 107.584984,34.258736 
	C109.445221,35.836956 107.546921,42.904507 105.070084,45.397961 
	C104.718819,45.751587 104.370758,46.108414 103.763260,46.727928 
z"/>
<path fill="#B3870F" opacity="1.000000" stroke="none" 
	d="
M33.906567,38.622650 
	C29.971500,40.292122 25.915277,41.629715 21.493942,43.012489 
	C24.657866,37.591805 26.744459,36.805923 33.906567,38.622650 
z"/>
</svg>
